<?xml version="1.0" encoding="utf-8"?><svg version="1.1" xmlns="http://www.w3.org/2000/svg" xmlns:xlink="http://www.w3.org/1999/xlink" x="0px" y="0px" viewBox="0 0 198.8 38.7" style="enable-background:new 0 0 198.8 38.7;" xml:space="preserve"><style type="text/css">.st0{fill:#e2583e;}</style><g><g><path class="st0" d="M2.3,27.3h26.9l0.3-1.5H2.6l1.1-5.1h42.7l-2.3,11H17.2l-0.3,1.5h26.9l-1,5.1H0L2.3,27.3z M47.7,19.1H3.2l1.1-5.3h28.3l0.8-1.9H6.1l1.1-5.2h28.4l0.3-1.4H7.5L8.6,0h41.8l-1.2,5.8l-3.4,8h3L47.7,19.1z"/><path class="st0" d="M93.9,29.9l-1.8,8.4H49l2.6-12.1h13.2l-0.8,3.8H93.9z M55.8,6.6h26.9L83,5.1H56.1l1-5.1h42.7l-2.3,10.9H70.2l-0.3,1.5h27.3l-1.1,5.1H81.3L81,19h15.7l-1.2,5.8H51l1.2-5.8h15.7l0.3-1.5H53.4L55.8,6.6z"/><path class="st0" d="M112.9,18.4h13.1l-2.1,9.7h20.3l-2.1,10.2H96.7l2.1-10.2h12L112.9,18.4z M130.8,17H103l1.6-7.7h28.5l0.3-1.6H105l1.6-7.7h41.8l-1.8,8.6L142,23.5h-13.3L130.8,17z"/><path class="st0" d="M168.1,38.7c-20.6,0-22.2-1.4-20.5-9.5s3.9-9.5,24.5-9.5s22.2,1.4,20.4,9.5S188.7,38.7,168.1,38.7zM181.6,7.5h-16.3l-0.7,3.4h16.3l-1.6,7.5H150L153.8,0h29.4L181.6,7.5z M170.4,27.9c-9.2,0-9.4,0.2-9.6,1.3s-0.1,1.3,9.1,1.3s9.4-0.2,9.6-1.3S179.6,27.9,170.4,27.9z M194.9,18.4h-13.1L185.7,0h13.1L194.9,18.4z"/></g></g></svg>
